<svg id="Capa_1" data-name="Capa 1" fill="#303c6c" xmlns="http://www.w3.org/2000/svg" viewBox="0 0 837.33 837.33"><path d="M298.81,818.66A97.21,97.21,0,0,1,214,769L148.36,651.62,31,586A97.06,97.06,0,0,1,9.77,432.55l14.88-14.89a97.08,97.08,0,0,1,68.67-28.44,97.67,97.67,0,0,1,18.21,1.72l93.63,17.88,37.33-37.33-194.88-109A97.08,97.08,0,0,1,26.34,109.06L79,56.43a97.06,97.06,0,0,1,95.44-24.68l316.93,90.9,93-93c14.2-14.19,32.76-26.26,53.67-34.89,21.21-8.76,43.48-13.39,64.38-13.39A128.47,128.47,0,0,1,743-12.33,108.82,108.82,0,0,1,786,14c16.64,16.64,27.42,38.49,31.19,63.18,2.59,17,1.86,35.11-2.17,53.76-6.92,32-23.59,63.65-44.6,84.66l-93,93,90.9,316.93A97.14,97.14,0,0,1,743.57,721l-52.63,52.63a97.1,97.1,0,0,1-153.42-21.26l-109-194.88-37.33,37.33,17.87,93.62a97,97,0,0,1-26.72,86.88l-14.89,14.88A96.42,96.42,0,0,1,298.81,818.66Zm5.69-91.39,14.88-14.88a8.1,8.1,0,0,0,2.22-7.23L298.21,582.6a33.39,33.39,0,0,1,9.19-29.89L417.53,442.58a33.41,33.41,0,0,1,52.79,7.31l144.9,259a8.12,8.12,0,0,0,7.09,4.14A7.88,7.88,0,0,0,628,710.7l52.63-52.63a8.08,8.08,0,0,0,2-7.94L582.74,301.71a33.41,33.41,0,0,1,8.49-32.84l116.2-116.2C726.28,133.82,737.52,91.49,723,77c-4.32-4.32-11.44-6.6-20.58-6.6-18.44,0-42.64,9.75-55.1,22.2l-116.2,116.2a33.38,33.38,0,0,1-32.84,8.49L149.87,117.33a8.06,8.06,0,0,0-2.23-.31,7.93,7.93,0,0,0-5.72,2.36L89.29,172a8.09,8.09,0,0,0,1.77,12.77l259,144.9a33.41,33.41,0,0,1,7.32,52.79L247.28,492.6a33.63,33.63,0,0,1-23.62,9.78,33.12,33.12,0,0,1-6.27-.59L94.81,478.39a7.45,7.45,0,0,0-1.49-.14,7.93,7.93,0,0,0-5.72,2.36L72.72,495.5a8.07,8.07,0,0,0,1.77,12.76l131.05,73.35a33.4,33.4,0,0,1,12.83,12.84l73.36,131a8.12,8.12,0,0,0,7.08,4.14A7.92,7.92,0,0,0,304.5,727.27Z" transform="translate(18.67 18.67)"/></svg>