<svg id="Layer_1" data-name="Layer 1" fill="#303c6c" xmlns="http://www.w3.org/2000/svg" viewBox="0 0 12.75 12.75"><path d="M10.88-.38H1.12a1.51,1.51,0,0,0-1.5,1.5v9.76a1.51,1.51,0,0,0,1.5,1.5h9.76a1.51,1.51,0,0,0,1.5-1.5V1.12A1.51,1.51,0,0,0,10.88-.38Zm-3.76,9v2.26H4.88V8.62Zm-3.74,0v2.26H1.12V8.62Zm0-5.24H1.12V1.12H3.38Zm1.5,0V1.12H7.12V3.38Zm2.24,1.5V7.12H4.88V4.88Zm-3.74,0V7.12H1.12V4.88ZM8.62,7.12V4.88h2.26V7.12Zm0,1.5h2.26v2.26H8.62Zm2.26-5.24H8.62V1.12h2.26Z" transform="translate(0.38 0.38)"/></svg>