<?xml version="1.0" encoding="utf-8"?>
<!-- Generator: Adobe Illustrator 25.0.1, SVG Export Plug-In . SVG Version: 6.00 Build 0)  -->
<svg version="1.1" id="Layer_1" xmlns="http://www.w3.org/2000/svg" xmlns:xlink="http://www.w3.org/1999/xlink" x="0px" y="0px"
	 viewBox="0 0 122.9 107.7" style="enable-background:new 0 0 122.9 107.7;" xml:space="preserve">
<style type="text/css">
	.st0{fill:red;}
</style>
<g>
	<path class="st0" d="M61.4,13.5c5.3-6,11.4-9.8,17.5-11.8C85.4-0.4,92-0.5,98.1,1.1c6.1,1.5,11.5,4.7,15.7,9
		c5.6,5.7,9.1,13.4,9.1,22c0,13.7-6.6,26.8-17.4,39.4c-10.1,11.8-24.1,23.3-39.6,34.7c-2.6,1.9-6,1.9-8.5,0.2v0l0,0v0l0,0l-0.2-0.2
		c-4.5-2.9-8.8-5.9-12.8-8.9c-4-3-8-6.2-11.8-9.6C12.6,70.4,0,51.4,0,32.1c0-8.8,3.4-16.4,8.9-22.1c4.2-4.4,9.7-7.5,15.8-9v0
		c6-1.5,12.6-1.4,19,0.7C50,3.7,56.1,7.5,61.4,13.5L61.4,13.5L61.4,13.5z"/>
</g>
</svg>
